<svg width="3095" height="3095" viewBox="0 0 3095 3095" fill="none" xmlns="http://www.w3.org/2000/svg">
<path d="M1548 781.5C1548 680.842 1528.17 581.169 1489.65 488.173C1451.13 395.177 1394.67 310.679 1323.5 239.503C1252.32 168.327 1167.82 111.867 1074.83 73.3463C981.831 34.8261 882.158 15 781.5 15C680.842 15 581.169 34.8261 488.173 73.3464C395.177 111.867 310.679 168.327 239.503 239.503C168.327 310.679 111.867 395.177 73.3463 488.173C34.8261 581.169 15 680.842 15 781.5" stroke="#2B3235" stroke-width="30" stroke-linecap="round" stroke-linejoin="round" stroke-dasharray="1 60"/>
<path d="M3080 2314C3080 2414.59 3060.19 2514.2 3021.69 2607.14C2983.2 2700.07 2926.77 2784.51 2855.64 2855.64C2784.51 2926.77 2700.07 2983.2 2607.14 3021.69C2514.2 3060.19 2414.59 3080 2314 3080C2213.41 3080 2113.8 3060.19 2020.86 3021.69C1927.93 2983.2 1843.49 2926.77 1772.36 2855.64C1701.23 2784.51 1644.8 2700.07 1606.31 2607.14C1567.81 2514.2 1548 2414.59 1548 2314" stroke="#2B3235" stroke-width="30" stroke-linecap="round" stroke-linejoin="round" stroke-dasharray="1 60"/>
<line x1="1548" y1="2258" x2="1548" y2="838" stroke="#2B3235" stroke-width="30" stroke-linecap="round" stroke-dasharray="1 60"/>
<line x1="15" y1="2258" x2="14.9999" y2="838" stroke="#2B3235" stroke-width="30" stroke-linecap="round" stroke-dasharray="1 60"/>
<line x1="15" y1="3065" x2="15" y2="2319" stroke="#2B3235" stroke-width="30" stroke-linecap="round" stroke-dasharray="1 60"/>
<line x1="3080" y1="2258" x2="3080" y2="838" stroke="#2B3235" stroke-width="30" stroke-linecap="round" stroke-dasharray="1 60"/>
<line x1="3080" y1="778" x2="3080" y2="30" stroke="#2B3235" stroke-width="30" stroke-linecap="round" stroke-dasharray="1 60"/>
</svg>
